# xmcd
#
# Track frame offsets:
#	150
#	14764
#	33182
#	48474
#	64220
#	81218
#	99652
#	114810
#	126910
#	143213
#	158302
#	174228
#	189486
#	203237
#
# Disc length: 2936 seconds
#
# Revision: 0
# Processed by: cddbd v1.5.1PL2 Copyright (c) Steve Scherf et al.
# Submitted via: dBpowerAMP V4.0
#
DISCID=b50b760e
DTITLE=Tony Christie - Starportrait
DYEAR=1900
DGENRE=Oldies
TTITLE0=Amarillo
TTITLE1=Solitaire
TTITLE2=Las Vegas
TTITLE3=I did what i did for maria
TTITLE4=Feelings
TTITLE5=My sweet lord
TTITLE6=Don´t go down to reno
TTITLE7=The most beautiful girl in the world
TTITLE8=So deep is the night
TTITLE9=Avenues and alleyways
TTITLE10=didn´t we
TTITLE11=i´m not in love
TTITLE12=have you ever been to georgia
TTITLE13=happy birthday baby
EXTD=
EXTT0=
EXTT1=
EXTT2=
EXTT3=
EXTT4=
EXTT5=
EXTT6=
EXTT7=
EXTT8=
EXTT9=
EXTT10=
EXTT11=
EXTT12=
EXTT13=
PLAYORDER=
